<svg xmlns="http://www.w3.org/2000/svg" width="49" height="49" fill="none" viewBox="0 0 49 49"><g clip-path="url(#clip0)"><path fill="#D1D5DB" d="M3.69995 1.26001L7.47058 43.5911L24.3898 48.3086L41.3563 43.5739L45.1299 1.26001L3.69995 1.26001ZM37.2966 10.9583L36.0414 25.0601L36.0452 25.1363L36.04 25.3114L36.04 25.3099L35.1482 35.1701L35.05 36.0461L24.415 38.9876L24.415 38.988L24.4067 38.9951L13.7901 36.0371L13.0712 27.885H18.2773L18.6467 32.0303L24.4165 33.594L24.415 33.597L24.415 33.5963L30.2061 32.0104L30.8181 25.26H18.712L18.6081 24.1189L18.3715 21.4455L18.2473 20.01H31.2782L31.7522 14.76H11.905L11.8011 13.6196L11.5648 10.9455L11.4403 9.51001L37.4207 9.51001L37.2966 10.9583Z"/></g><defs><clipPath id="clip0"><rect width="48" height="48" fill="#fff" transform="translate(0.5 0.859985)"/></clipPath></defs></svg>