<svg width="68" height="72" viewBox="0 0 68 72" fill="none" xmlns="http://www.w3.org/2000/svg">
<g clip-path="url(#clip0_1094_2643)">
<path d="M33.9211 71.819L6.2785 66.0506L0.118328 14.1149L67.8067 14.1149L61.6402 66.0427L33.9211 71.819Z" fill="#264DE4"/>
<path d="M56.3606 62.7357L61.6301 18.361L33.9622 18.361L33.9622 67.4033L56.3606 62.7357Z" fill="#2965F1"/>
<path d="M14.2399 37.6237L14.9993 43.9934L33.9622 43.9934L33.9622 37.6237L14.2399 37.6237ZM12.7137 24.7313L13.484 31.101L33.9622 31.101L33.9622 24.7313L12.7137 24.7313ZM33.9622 54.1665L33.925 54.1739L24.4878 52.2584L23.8844 47.1783L15.3779 47.1783L16.565 57.1798L33.9232 60.8017L33.9622 60.7937L33.9622 54.1665Z" fill="#EBEBEB"/>
<path d="M16.0475 0.000453598L26.3105 0.000454343L26.3105 3.22669L20.3395 3.22669L20.3395 6.45293L26.311 6.45293L26.311 9.67897L16.0475 9.67897L16.0475 0.000453598ZM28.3633 0.000454447L38.6266 0.000453565L38.6266 2.80586L32.6553 2.80586L32.6553 3.3669L38.6266 3.3669L38.6266 9.81938L28.3636 9.81938L28.3636 6.87336L34.3348 6.87336L34.3348 6.31232L28.3631 6.31232L28.3633 0.000454447ZM40.6794 0.000453669L50.9427 0.000454144L50.9427 2.80586L44.9714 2.80586L44.9714 3.3669L50.9427 3.3669L50.9427 9.81938L40.6794 9.81938L40.6794 6.87336L46.6507 6.87336L46.6507 6.31232L40.6797 6.31232L40.6794 0.000453669Z" fill="black"/>
<path d="M53.6299 37.6235L55.1595 24.7311L33.9326 24.7311L33.9326 31.1008L45.873 31.1008L45.1019 37.6235L33.9326 37.6235L33.9326 43.9932L44.3672 43.9932L43.3834 52.2543L33.9323 54.1718L33.9323 60.7986L51.3043 57.1796L53.4232 39.334L53.6299 37.6235Z" fill="white"/>
</g>
<defs>
<clipPath id="clip0_1094_2643">
<rect width="67.9245" height="72" fill="white"/>
</clipPath>
</defs>
</svg>
