<svg xmlns="http://www.w3.org/2000/svg" width="48" height="49" fill="none" viewBox="0 0 48 49"><g clip-path="url(#clip0)"><path fill="#D1D5DB" d="M0.75 1.23499L0.750005 48.11H47.625L47.625 1.23499L0.75 1.23499ZM25.5446 41.1774C24.8528 42.5832 23.532 43.5069 22.0016 43.9527C19.65 44.4927 17.4008 44.1849 15.7275 43.1806C14.6078 42.4936 13.7333 41.4361 13.1396 40.2177L16.7096 38.0315C16.7408 38.0446 16.8345 38.2141 16.9598 38.4331C17.415 39.1959 17.8076 39.7359 18.5794 40.115C19.3376 40.3737 21.0023 40.5391 21.645 39.2049C22.0376 38.5261 21.9128 36.3444 21.9128 33.9305C21.9124 30.1374 21.93 26.36 21.93 22.61H26.3209C26.3209 26.735 26.3434 30.6417 26.3209 34.667C26.3303 37.1345 26.5444 39.3342 25.5446 41.1774ZM43.7599 39.9369C42.2336 45.1576 33.7241 45.3271 30.3236 41.8779C29.6051 41.066 29.1548 40.6419 28.7261 39.7047C30.5333 38.6652 30.5333 38.6652 32.2916 37.6479C33.2468 39.116 34.1299 39.9234 35.7188 40.2537C37.8743 40.517 40.0429 39.7764 39.5565 37.487C39.0566 35.6172 35.1428 35.1624 32.4791 33.1629C29.775 31.3467 29.1413 26.9337 31.3635 24.4122C32.1041 23.4796 33.3671 22.7836 34.6924 22.4491L36.0754 22.2702C38.7307 22.2166 40.3905 22.9179 41.6089 24.2784C41.9479 24.6219 42.2246 24.9924 42.7421 25.7952C41.3276 26.6967 41.3321 26.6881 39.306 27.9999C38.8733 27.0676 38.1551 26.4826 37.3961 26.2284C36.2179 25.8714 34.7321 26.2595 34.4239 27.5045C34.317 27.8881 34.3391 28.2451 34.509 28.8789C34.9864 29.9675 36.5884 30.4407 38.0254 31.1011C42.162 32.7789 43.5589 34.5777 43.9024 36.719C44.2331 38.5625 43.8225 39.7584 43.7599 39.9369Z"/></g><defs><clipPath id="clip0"><rect width="48" height="48" fill="#fff" transform="translate(0 0.859985)"/></clipPath></defs></svg>