<svg width="69" height="72" viewBox="0 0 69 72" fill="none" xmlns="http://www.w3.org/2000/svg">
<g clip-path="url(#clip0_1094_2637)">
<path d="M64.3328 18.9793L58.9487 63.8901L34.747 68.8859L10.6119 63.897L5.23344 18.9793L64.3328 18.9793Z" fill="#E44D26"/>
<path d="M34.7832 65.0673L54.3394 61.0304L58.9402 22.6519L34.7832 22.6519L34.7832 65.0673Z" fill="#F16529"/>
<path d="M24.3157 33.6696L34.7822 33.6696L34.7822 28.1606L16.2299 28.1606L18.2255 44.8198L34.7822 44.8198L34.7822 39.3109L24.9919 39.3109L24.3157 33.6696ZM25.9832 47.5744L18.5561 47.5744L19.5925 56.2244L34.7481 59.3569L34.7822 59.35L34.7822 53.6183L34.7497 53.6247L26.51 51.968L25.9832 47.5744Z" fill="#EBEBEB"/>
<path d="M10.731 6.77209L14.4909 6.77209L14.4909 9.53806L17.9304 9.53806L17.9304 6.77209L21.6905 6.77209L21.6905 15.1481L17.9306 15.1481L17.9306 12.3433L14.4911 12.3433L14.4911 15.1481L10.7313 15.1481L10.731 6.77209ZM23.3251 9.54979L23.3251 6.77209L33.7068 6.77209L33.7068 9.54979L30.3952 9.54979L30.3952 15.1481L26.6353 15.1481L26.6353 9.54979L23.3251 9.54979ZM35.3544 6.77209L39.2748 6.77209L41.6864 9.71521L44.0957 6.77209L48.0177 6.77209L48.0177 15.1481L44.2732 15.1481L44.2732 10.9965L41.6864 13.9746L41.6215 13.9746L39.0332 10.9965L39.0332 15.1481L35.3544 15.1481L35.3544 6.77209ZM49.8889 6.77209L53.6499 6.7721L53.6499 12.3796L58.9374 12.3796L58.9374 15.1481L49.8887 15.1481L49.8889 6.77209Z" fill="#2F3941"/>
<path d="M34.7571 44.8204L43.8677 44.8204L43.0087 51.9652L34.7568 53.6236L34.7568 59.3549L49.9245 56.225L51.7745 40.7908L51.955 39.3115L34.7571 39.3115L34.7571 44.8204ZM34.7571 33.6702L52.6282 33.6702L52.7765 32.432L53.1138 29.6391L53.2905 28.1612L34.7571 28.1612L34.7571 33.6702Z" fill="white"/>
</g>
<defs>
<clipPath id="clip0_1094_2637">
<rect width="68.5714" height="72" fill="white"/>
</clipPath>
</defs>
</svg>
