<svg width="68" height="72" viewBox="0 0 68 72" fill="none" xmlns="http://www.w3.org/2000/svg">
<path d="M-0.000253983 -0.00012133L67.0342 -0.000118699L67.0342 71.9999L-0.000255964 71.9999L-0.000253983 -0.00012133Z" fill="#F7DF1E"/>
<path d="M17.6263 60.1684L22.756 56.8338C23.7458 58.7185 24.646 60.3132 26.8055 60.3132C28.8755 60.3132 30.1808 59.4436 30.1808 56.0607L30.1808 33.055L36.4802 33.055L36.4802 56.1563C36.4802 63.1642 32.6556 66.3542 27.0755 66.3542C22.0361 66.3542 19.1112 63.5515 17.6263 60.1684ZM39.9019 59.4433L45.0311 56.2536C46.3814 58.622 48.1364 60.3618 51.2409 60.3618C53.8513 60.3618 55.5157 58.9601 55.5157 57.0268C55.5157 54.707 53.8058 53.8852 50.9259 52.5324L49.3514 51.8068C44.8064 49.7292 41.7917 47.1192 41.7917 41.6095C41.7917 36.5346 45.3914 32.668 51.0162 32.668C55.021 32.668 57.9009 34.1665 59.9706 38.0812L55.0655 41.4647C53.9854 39.3865 52.816 38.565 51.016 38.565C49.171 38.565 48.001 39.8216 48.001 41.4647C48.001 43.4944 49.171 44.3165 51.8707 45.5732L53.4455 46.2979C58.8004 48.7631 61.8151 51.2761 61.8151 56.9303C61.8151 63.0205 57.3604 66.355 51.3758 66.355C45.5262 66.355 41.7466 63.3583 39.9019 59.4433Z" fill="black"/>
</svg>
