<svg width="153" height="86" viewBox="0 0 153 86" fill="none" xmlns="http://www.w3.org/2000/svg">
  <path d="M20.2879 66.5073C20.2879 66.5073 17.0258 68.4184 22.6132 69.0644C29.3816 69.8424 32.8412 69.7304 40.299 68.3114C40.299 68.3114 42.2647 69.5484 45.0023 70.6205C28.279 77.8338 7.15338 70.2024 20.2879 66.5073ZM18.2426 57.0918C18.2426 57.0918 14.5833 59.8209 20.1746 60.403C27.4059 61.154 33.1144 61.216 42.9998 59.2999C42.9998 59.2999 44.3636 60.696 46.5121 61.457C26.2964 67.4113 3.77912 61.926 18.2426 57.0918Z" fill="#0074BD"/>
  <path d="M35.4695 41.12C39.5928 45.8983 34.3888 50.1945 34.3888 50.1945C34.3888 50.1945 44.8513 44.7572 40.0467 37.9459C35.5579 31.5966 32.1181 28.4434 50.7456 17.5669C50.7466 17.5669 21.5047 24.9172 35.4695 41.12Z" fill="#EA2D2E"/>
  <path d="M57.5875 73.4716C57.5875 73.4716 60.0032 75.4767 54.9274 77.0268C45.2765 79.9699 14.7542 80.858 6.27629 77.1438C3.23082 75.8087 8.94531 73.9566 10.7422 73.5676C12.6166 73.1586 13.6873 73.2336 13.6873 73.2336C10.2982 70.8305 -8.22001 77.9528 4.28174 79.9959C38.376 85.5592 66.4299 77.4898 57.5875 73.4716ZM21.8583 47.3363C21.8583 47.3363 6.3339 51.0495 16.3613 52.3996C20.5968 52.9696 29.0339 52.8386 36.8989 52.1746C43.3246 51.6315 49.7731 50.4705 49.7731 50.4705C49.7731 50.4705 47.5094 51.4485 45.8695 52.5746C30.1017 56.7498 -0.352031 54.8047 8.41588 50.5365C15.8289 46.9253 21.8583 47.3363 21.8583 47.3363ZM49.7086 63.0071C65.7356 54.6247 58.3245 46.5683 53.1524 47.6533C51.8879 47.9194 51.3197 48.1494 51.3197 48.1494C51.3197 48.1494 51.7915 47.4053 52.6885 47.0863C62.9215 43.4661 70.7895 57.7678 49.3887 63.4321C49.3887 63.4321 49.6341 63.2081 49.7086 63.0071Z" fill="#0074BD"/>
  <path d="M40.0477 0C40.0477 0 48.9229 8.93944 31.6284 22.6831C17.7599 33.7107 28.4657 39.997 31.6225 47.1823C23.527 39.828 17.5891 33.3536 21.5722 27.3293C27.4218 18.4869 43.6276 14.1977 40.0477 0Z" fill="#EA2D2E"/>
  <path d="M23.4347 85.7302C38.815 86.7203 62.4408 85.1792 63 77.8518C63 77.8518 61.9252 80.629 50.2867 82.8331C37.1572 85.3212 20.9613 85.0322 11.358 83.4361C11.358 83.4361 13.3248 85.0762 23.4347 85.7302Z" fill="#0074BD"/>
  <path d="M150.18 33.3338H149.711V33.0682H150.973V33.3338H150.506V34.6587H150.179L150.18 33.3338V33.3338ZM152.7 33.4002H152.694L152.229 34.6587H152.014L151.552 33.4002H151.547V34.6587H151.237V33.0682H151.691L152.119 34.1939L152.549 33.0682H153V34.6587H152.7V33.4002V33.4002ZM108.777 48.279C107.325 49.5526 105.791 50.2689 104.412 50.2689C102.45 50.2689 101.386 49.0758 101.386 47.1654C101.386 45.098 102.525 43.584 107.089 43.584H108.776V48.279H108.777ZM112.783 52.8543V38.6928C112.783 35.0722 110.743 32.6839 105.829 32.6839C102.96 32.6839 100.445 33.4022 98.4007 34.3156L98.9891 36.8236C100.599 36.2251 102.682 35.6697 104.725 35.6697C107.558 35.6697 108.776 36.8236 108.776 39.2119V41.0016H107.36C100.481 41.0016 97.3769 43.7027 97.3769 47.7649C97.3769 51.2648 99.4225 53.2537 103.274 53.2537C105.749 53.2537 107.599 52.2195 109.325 50.7055L109.639 52.8553H112.783V52.8543V52.8543ZM126.154 52.8543H121.157L115.143 33.0471H119.507L123.241 45.2187L124.071 48.8756C125.955 43.586 127.291 38.2159 127.959 33.0481H132.204C131.068 39.568 129.021 46.7278 126.154 52.8543ZM145.326 48.279C143.869 49.5526 142.334 50.2689 140.96 50.2689C138.996 50.2689 137.933 49.0758 137.933 47.1654C137.933 45.098 139.075 43.584 143.634 43.584H145.325V48.279H145.326ZM149.334 52.8543V38.6928C149.334 35.0722 147.288 32.6839 142.378 32.6839C139.506 32.6839 136.992 33.4022 134.948 34.3156L135.537 36.8236C137.147 36.2251 139.233 35.6697 141.276 35.6697C144.105 35.6697 145.326 36.8236 145.326 39.2119V41.0016H143.91C137.029 41.0016 133.926 43.7027 133.926 47.7649C133.926 51.2648 135.969 53.2537 139.82 53.2537C142.296 53.2537 144.143 52.2195 145.874 50.7055L146.19 52.8553H149.334V52.8543V52.8543ZM92.9836 56.2204C91.8435 57.9095 89.9967 59.2465 87.977 60L86 57.6409C87.5377 56.8421 88.8547 55.5534 89.4679 54.3523C89.9967 53.2829 90.2164 51.9077 90.2164 48.617V26H94.4745V48.3062C94.4745 52.7075 94.1286 54.4871 92.9836 56.2204V56.2204Z" fill="#EA2D2E"/>
</svg>