<svg xmlns="http://www.w3.org/2000/svg" width="48" height="49" fill="none" viewBox="0 0 48 49"><path fill="#61DAFB" d="M23.9999 29.135C26.3609 29.135 28.2749 27.221 28.2749 24.86C28.2749 22.4989 26.3609 20.585 23.9999 20.585C21.6388 20.585 19.7249 22.4989 19.7249 24.86C19.7249 27.221 21.6388 29.135 23.9999 29.135Z"/><path fill="#61DAFB" d="M40.2374 17.81C39.4124 17.51 38.5499 17.21 37.6499 16.9475C37.8749 16.0475 38.0624 15.1475 38.2124 14.285C38.9999 9.33496 38.1374 5.84746 35.7374 4.49746C35.0249 4.08496 34.2374 3.89746 33.3374 3.89746C30.7124 3.89746 27.3749 5.84746 23.9999 9.10996C20.6249 5.84746 17.2874 3.89746 14.6624 3.89746C13.7624 3.89746 12.9749 4.08496 12.2624 4.49746C9.8624 5.88496 8.9999 9.37246 9.7874 14.285C9.9374 15.1475 10.1249 16.0475 10.3499 16.9475C9.4499 17.21 8.5874 17.4725 7.7624 17.81C3.0749 19.61 0.524902 22.085 0.524902 24.86C0.524902 27.635 3.1124 30.11 7.7624 31.91C8.5874 32.21 9.4499 32.51 10.3499 32.7725C10.1249 33.6725 9.9374 34.5725 9.7874 35.435C8.9999 40.385 9.8624 43.8725 12.2624 45.2225C12.9749 45.635 13.7624 45.8225 14.6624 45.8225C17.3249 45.8225 20.6624 43.8725 23.9999 40.61C27.3749 43.8725 30.7124 45.8225 33.3374 45.8225C34.2374 45.8225 35.0249 45.635 35.7374 45.2225C38.1374 43.835 38.9999 40.3475 38.2124 35.435C38.0624 34.5725 37.8749 33.6725 37.6499 32.7725C38.5499 32.51 39.4124 32.2475 40.2374 31.91C44.9249 30.11 47.4749 27.635 47.4749 24.86C47.4749 22.085 44.9249 19.61 40.2374 17.81ZM34.6874 6.37246C36.2249 7.27246 36.7499 10.0475 36.1124 13.985C35.9999 14.7725 35.8124 15.5975 35.5874 16.46C33.6374 16.01 31.5749 15.71 29.3999 15.5225C28.1249 13.7225 26.8124 12.11 25.4999 10.6475C28.2749 7.90996 31.0874 6.03496 33.3749 6.03496C33.8624 6.03496 34.3124 6.14746 34.6874 6.37246ZM30.4874 28.61C29.8124 29.81 29.0249 31.01 28.1999 32.21C26.8124 32.3225 25.4249 32.36 23.9999 32.36C22.5374 32.36 21.1499 32.3225 19.7999 32.21C18.9749 31.01 18.2249 29.81 17.5499 28.61C16.8374 27.3725 16.1624 26.0975 15.5624 24.86C16.1624 23.6225 16.8374 22.3475 17.5499 21.11C18.2249 19.91 19.0124 18.71 19.8374 17.51C21.2249 17.3975 22.6124 17.36 24.0374 17.36C25.4999 17.36 26.8874 17.3975 28.2374 17.51C29.0624 18.71 29.8124 19.91 30.4874 21.11C31.1999 22.3475 31.8749 23.6225 32.4749 24.86C31.8374 26.0975 31.1999 27.335 30.4874 28.61ZM33.5999 27.3725C34.1624 28.685 34.6124 29.96 35.0249 31.235C33.7499 31.535 32.3999 31.76 30.9749 31.9475C31.4249 31.235 31.9124 30.485 32.3249 29.6975C32.7749 28.91 33.1874 28.1225 33.5999 27.3725ZM23.9999 37.535C23.0999 36.56 22.2374 35.51 21.4124 34.4225C22.2749 34.46 23.1374 34.4975 23.9999 34.4975C24.8624 34.4975 25.7249 34.46 26.5874 34.4225C25.7624 35.51 24.8999 36.56 23.9999 37.535ZM17.0249 31.91C15.5999 31.7225 14.2499 31.4975 12.9749 31.1975C13.3874 29.96 13.8374 28.6475 14.3999 27.335C14.8124 28.085 15.2249 28.8725 15.6749 29.6225C16.1249 30.4475 16.5749 31.16 17.0249 31.91ZM14.3999 22.3475C13.8374 21.035 13.3874 19.76 12.9749 18.485C14.2499 18.185 15.5999 17.96 17.0249 17.7725C16.5749 18.485 16.0874 19.235 15.6749 20.0225C15.2249 20.81 14.8124 21.5975 14.3999 22.3475ZM23.9999 12.185C24.8999 13.16 25.7624 14.21 26.5874 15.2975C25.7249 15.26 24.8624 15.2225 23.9999 15.2225C23.1374 15.2225 22.2749 15.26 21.4124 15.2975C22.2374 14.21 23.0999 13.16 23.9999 12.185ZM32.3249 20.06L30.9749 17.81C32.3999 17.9975 33.7499 18.2225 35.0249 18.5225C34.6124 19.76 34.1624 21.0725 33.5999 22.385C33.1874 21.5975 32.7749 20.81 32.3249 20.06ZM11.8874 13.985C11.2499 10.0475 11.7749 7.27246 13.3124 6.37246C13.6874 6.14746 14.1374 6.03496 14.6249 6.03496C16.8749 6.03496 19.6874 7.87246 22.4999 10.6475C21.1874 12.0725 19.8749 13.7225 18.5999 15.5225C16.4249 15.71 14.3624 16.0475 12.4124 16.46C12.1874 15.5975 12.0374 14.7725 11.8874 13.985ZM2.6249 24.86C2.6249 23.0975 4.7624 21.2225 8.5124 19.835C9.2624 19.535 10.0874 19.2725 10.9124 19.0475C11.5124 20.9225 12.2624 22.91 13.1624 24.8975C12.2624 26.885 11.4749 28.835 10.9124 30.71C5.7374 29.21 2.6249 26.96 2.6249 24.86ZM13.3124 43.3475C11.7749 42.4475 11.2499 39.6725 11.8874 35.735C11.9999 34.9475 12.1874 34.1225 12.4124 33.26C14.3624 33.71 16.4249 34.01 18.5999 34.1975C19.8749 35.9975 21.1874 37.61 22.4999 39.0725C19.7249 41.81 16.9124 43.685 14.6249 43.685C14.1374 43.685 13.6874 43.5725 13.3124 43.3475ZM36.1124 35.735C36.7499 39.6725 36.2249 42.4475 34.6874 43.3475C34.3124 43.5725 33.8624 43.685 33.3749 43.685C31.1249 43.685 28.3124 41.8475 25.4999 39.0725C26.8124 37.6475 28.1249 35.9975 29.3999 34.1975C31.5749 34.01 33.6374 33.6725 35.5874 33.26C35.8124 34.1225 35.9624 34.9475 36.1124 35.735ZM39.4874 29.885C38.7374 30.185 37.9124 30.4475 37.0874 30.6725C36.4874 28.7975 35.7374 26.81 34.8374 24.8225C35.7374 22.835 36.5249 20.885 37.0874 19.01C42.2624 20.51 45.3749 22.76 45.3749 24.86C45.3749 26.6225 43.1999 28.4975 39.4874 29.885Z"/></svg>