<svg width="68" height="72" viewBox="0 0 68 72" fill="none" xmlns="http://www.w3.org/2000/svg">
<g clip-path="url(#clip0_1144_3857)">
<g clip-path="url(#clip1_1144_3857)">
<path d="M17.927 33.9421C22.927 35.6995 28.2016 36.5455 33.5004 36.4399C38.7992 36.5449 44.0739 35.6981 49.0737 33.94C52.9764 32.4178 54.3604 30.7261 54.3604 29.7525L54.3604 22.3092C52.9959 23.223 51.5321 23.9788 49.997 24.5621C44.707 26.4563 39.1185 27.3798 33.5004 27.2881C27.8827 27.3781 22.2947 26.4561 17.0037 24.5663C15.4679 23.9829 14.0039 23.2256 12.6403 22.3092L12.6403 29.742C12.6403 30.7345 14.0285 32.4178 17.927 33.9421ZM17.9271 47.9807C19.6934 48.6543 21.5148 49.1734 23.3708 49.5321C26.7083 50.1778 30.101 50.4955 33.5004 50.4806C36.8997 50.4962 40.2923 50.1792 43.6299 49.5342C45.4859 49.1754 47.3074 48.6563 49.0737 47.9828C52.9764 46.4606 54.3604 44.7689 54.3604 43.7953L54.3604 36.6975C53.2325 37.3761 52.0471 37.9542 50.8178 38.4248C45.2605 40.3924 39.3947 41.3449 33.5004 41.2367C27.6054 41.3415 21.7396 40.3855 16.183 38.4143C14.9542 37.9425 13.7688 37.3645 12.6403 36.687L12.6403 43.7911C12.6403 44.7668 14.0285 46.4522 17.9271 47.9807ZM33.5004 64.8123C45.016 64.8123 54.3604 61.1608 54.3604 56.6593L54.3604 50.7193C53.3343 51.3378 52.2595 51.8714 51.1465 52.3147L50.8178 52.4466C45.2616 54.4201 39.3957 55.3782 33.5004 55.2753C27.6048 55.3812 21.7384 54.423 16.183 52.4466C16.0699 52.4048 15.961 52.3566 15.8542 52.3147C14.7413 51.8714 13.6664 51.3378 12.6403 50.7193L12.6403 56.6593C12.6403 61.1608 21.9847 64.8123 33.5004 64.8123Z" fill="#4F46E5"/>
<path d="M33.5004 22.4936C45.021 22.4936 54.3604 18.8434 54.3604 14.3406C54.3604 9.83776 45.021 6.18751 33.5004 6.18751C21.9797 6.18751 12.6403 9.83776 12.6403 14.3406C12.6403 18.8434 21.9797 22.4936 33.5004 22.4936Z" fill="#4F46E5"/>
</g>
</g>
<defs>
<clipPath id="clip0_1144_3857">
<rect width="67.0345" height="72" fill="white"/>
</clipPath>
<clipPath id="clip1_1144_3857">
<rect width="67" height="67" fill="white" transform="translate(0 2)"/>
</clipPath>
</defs>
</svg>
