<svg xmlns="http://www.w3.org/2000/svg" width="48" height="49" fill="none" viewBox="0 0 48 49"><g clip-path="url(#clip0)"><path fill="#E44D26" d="M3.38721 1.60999L7.13909 43.6449L23.9751 48.2952L40.8576 43.6501L44.6132 1.60999L3.38721 1.60999ZM36.8095 11.5621L36.5743 14.2516L36.4708 15.485L16.7215 15.485L17.1928 20.735H36.0013L35.8753 22.0366L34.663 35.5812L34.5737 36.4325L24.0002 39.3384L24.0002 39.3391L23.9875 39.3459L13.4211 36.5622L12.7037 28.61H17.8843L18.2515 32.7046L23.9841 34.235H24.0002L24.0002 34.0302L29.7583 32.5771L30.3598 25.985H12.4731L11.2045 11.6911L11.0811 10.235L36.9332 10.235L36.8095 11.5621Z"/></g><defs><clipPath id="clip0"><rect width="48" height="48" fill="#fff" transform="translate(0 0.859985)"/></clipPath></defs></svg>