<svg xmlns="http://www.w3.org/2000/svg" width="49" height="49" fill="none" viewBox="0 0 49 49"><g clip-path="url(#clip0)"><path fill="#D1D5DB" d="M24.2715 5.453C22.6882 5.4605 21.177 5.59512 19.8465 5.83062C15.9277 6.52287 15.2167 7.97187 15.2167 10.6445V14.1736H24.4766V15.35H11.7412C9.05021 15.35 6.69371 16.9674 5.95646 20.0454C5.10596 23.5722 5.06846 25.7735 5.95646 29.4564C6.61458 32.198 8.18658 34.151 10.878 34.151H14.0621V29.9202C14.0621 26.8636 16.7062 24.1677 19.8468 24.1677H29.0962C31.671 24.1677 33.726 22.0475 33.726 19.4622V10.6449C33.726 8.135 31.6087 6.24987 29.0962 5.831C27.5047 5.56625 25.8543 5.44587 24.2715 5.453ZM19.2637 8.29137C20.22 8.29137 21.0015 9.08525 21.0015 10.0617C21.0015 11.0341 20.2203 11.8205 19.2637 11.8205C18.3037 11.8205 17.5263 11.0341 17.5263 10.0617C17.526 9.08525 18.3037 8.29137 19.2637 8.29137Z"/><path fill="#D1D5DB" d="M34.8807 15.35V19.4622C34.8807 22.6497 32.1777 25.3329 29.0959 25.3329H19.8465C17.313 25.3329 15.2168 27.5015 15.2168 30.0387V38.8569C15.2168 41.366 17.3985 42.8424 19.8465 43.562C22.7775 44.4234 25.5885 44.5794 29.0959 43.562C31.4269 42.8866 33.7257 41.5284 33.7257 38.8569V35.3274H24.4767V34.1506H38.3562C41.0472 34.1506 42.0507 32.2737 42.9867 29.456C43.9534 26.5554 43.9118 23.7657 42.9867 20.045C42.3214 17.3656 41.0513 15.3496 38.3562 15.3496H34.8807V15.35ZM29.6783 37.6801C30.6387 37.6801 31.416 38.4665 31.416 39.4396C31.416 40.4154 30.6383 41.2092 29.6783 41.2092C28.722 41.2092 27.9409 40.4154 27.9409 39.4396C27.9409 38.4665 28.722 37.6801 29.6783 37.6801Z"/><path fill="url(#paint0_radial)" d="M36.991 45.7089C36.991 47.0375 31.435 48.1149 24.5819 48.1149C17.7284 48.1149 12.1724 47.0375 12.1724 45.7089C12.1724 44.3799 17.728 43.3025 24.5819 43.3025C31.435 43.3025 36.991 44.3795 36.991 45.7089Z" opacity=".444"/></g><defs><radialGradient id="paint0_radial" cx="0" cy="0" r="1" gradientTransform="translate(24.5317 45.64) rotate(-90) scale(2.40687 10.5802)" gradientUnits="userSpaceOnUse"><stop stop-color="#B8B8B8" stop-opacity=".498"/><stop offset="1" stop-color="#7F7F7F" stop-opacity="0"/></radialGradient><clipPath id="clip0"><rect width="48" height="48" fill="#fff" transform="translate(0.5 0.859985)"/></clipPath></defs></svg>