<?xml version="1.0" encoding="UTF-8"?>
<svg xmlns="http://www.w3.org/2000/svg" xmlns:xlink="http://www.w3.org/1999/xlink" width="40pt" height="50pt" viewBox="0 0 40 50" version="1.1">
<g id="surface1">
<path style=" stroke:none;fill-rule:nonzero;fill:rgb(6.666667%,6.27451%,5.490196%);fill-opacity:1;" d="M 3.4375 4.105469 C 5.605469 1.636719 8.71875 0.0625 11.941406 0.0117188 C 14.40625 -0.09375 16.894531 0.625 18.941406 2.070312 C 21.585938 3.882812 23.519531 6.78125 24.269531 9.984375 C 24.429688 10.597656 24.386719 11.347656 24.890625 11.796875 C 25.851562 12.035156 26.855469 11.863281 27.828125 12.046875 C 30.304688 12.667969 32.578125 14.113281 34.257812 16.113281 C 34.660156 16.574219 34.984375 17.105469 35.214844 17.683594 C 36.480469 20.414062 36.683594 23.488281 37.207031 26.425781 C 37.695312 30.367188 38.359375 34.28125 38.984375 38.199219 C 39.550781 41.828125 40.136719 45.492188 39.964844 49.179688 C 39.183594 48.875 38.503906 48.25 38.234375 47.410156 C 37.84375 46.082031 37.722656 44.691406 37.5625 43.316406 C 37.5 42.734375 37.039062 42.179688 36.441406 42.242188 C 35.578125 42.226562 35.199219 43.371094 35.460938 44.101562 C 35.90625 45.191406 36.707031 46.054688 37.457031 46.917969 C 37.867188 47.375 38.023438 48 38.351562 48.511719 C 38.773438 49.042969 39.378906 49.34375 39.976562 49.605469 C 39.761719 49.738281 39.589844 49.988281 39.3125 49.949219 C 38.414062 49.996094 37.515625 49.945312 36.613281 49.960938 C 35.507812 49.945312 34.390625 50.089844 33.296875 49.847656 C 31.769531 45.875 30.011719 42 28.339844 38.085938 C 27.523438 36.121094 26.683594 34.164062 25.832031 32.214844 C 24.871094 30.054688 24.046875 27.828125 23.027344 25.695312 C 22.875 24.949219 22.453125 24.316406 22.179688 23.621094 C 21.757812 22.53125 21.285156 21.457031 20.746094 20.425781 C 18.074219 25.648438 15.515625 30.933594 12.925781 36.199219 C 10.75 40.734375 8.378906 45.167969 6.378906 49.796875 C 4.351562 49.78125 2.324219 49.734375 0.292969 49.71875 C 5.554688 39.359375 10.660156 28.914062 15.835938 18.503906 C 16.285156 17.578125 16.777344 16.664062 17.128906 15.6875 C 16.128906 15.992188 15.21875 16.574219 14.183594 16.75 C 12.035156 17.207031 9.84375 16.726562 7.835938 15.914062 C 10.371094 13.480469 13.980469 12.566406 17.351562 12.742188 C 17.066406 11.792969 16.65625 10.878906 16.070312 10.09375 C 16.769531 8.765625 17.890625 7.796875 18.984375 6.835938 C 17.402344 6.644531 16.046875 7.753906 15.078125 8.9375 C 14.476562 8.507812 13.839844 8.132812 13.179688 7.8125 C 13.289062 6.609375 13.792969 5.523438 14.328125 4.472656 C 13.050781 4.789062 12.292969 6.078125 11.925781 7.308594 C 11.121094 7.183594 10.3125 7.167969 9.5 7.222656 C 9.359375 6.273438 9.355469 5.308594 9.4375 4.351562 C 8.433594 4.988281 8.460938 6.375 8.453125 7.457031 C 7.699219 7.742188 6.980469 8.117188 6.289062 8.546875 C 5.882812 7.894531 5.582031 7.179688 5.28125 6.464844 C 4.78125 7.386719 5.160156 8.46875 5.515625 9.363281 C 5.105469 9.992188 4.734375 10.644531 4.398438 11.316406 C 3.867188 11.035156 3.347656 10.722656 2.824219 10.421875 C 2.96875 11.207031 3.457031 11.835938 4.089844 12.257812 C 3.914062 13.078125 3.839844 13.914062 3.835938 14.753906 C 3.300781 14.804688 2.765625 14.835938 2.226562 14.890625 C 2.664062 15.382812 3.296875 15.5 3.90625 15.550781 C 4.066406 16.222656 4.253906 16.890625 4.488281 17.539062 C 4.15625 17.878906 3.820312 18.210938 3.503906 18.566406 C 3.957031 18.496094 4.402344 18.382812 4.839844 18.234375 C 5.402344 18.789062 6.09375 19.152344 6.753906 19.554688 C 6.722656 19.71875 6.65625 20.042969 6.621094 20.203125 C 6.84375 20.050781 7.066406 19.902344 7.289062 19.75 C 8.539062 20.125 9.90625 20.3125 11.164062 19.855469 C 11.9375 19.601562 12.5625 19.023438 13.324219 18.75 C 13.039062 20.140625 11.925781 21.1875 10.738281 21.785156 C 9.007812 22.640625 6.992188 22.402344 5.25 21.71875 C 4.054688 21.359375 3.09375 20.46875 2.300781 19.503906 C 1.027344 17.992188 0.179688 16.074219 0.03125 14.058594 C -0.199219 10.4375 1.09375 6.765625 3.4375 4.105469 Z M 28.847656 23.886719 C 28.726562 24.5625 28.75 25.28125 28.964844 25.9375 C 29.53125 27.574219 31.183594 28.335938 32.5625 29.078125 C 32.460938 28.714844 32.359375 28.351562 32.261719 27.992188 C 30.480469 27.800781 29.472656 25.136719 30.867188 23.84375 C 30.695312 23.425781 30.523438 23.007812 30.351562 22.585938 C 29.773438 22.890625 29.046875 23.175781 28.847656 23.886719 Z M 31.167969 25.019531 C 31.023438 25.78125 31.164062 26.710938 31.972656 26.980469 C 31.777344 26.304688 31.636719 25.5625 31.167969 25.019531 Z M 31.167969 25.019531 "/>
</g>
</svg>
