<svg xmlns="http://www.w3.org/2000/svg" width="48" height="49" fill="none" viewBox="0 0 48 49"><path fill="#D1D5DB" d="M23.9999 28.635C26.3609 28.635 28.2749 26.721 28.2749 24.36C28.2749 21.9989 26.3609 20.085 23.9999 20.085C21.6388 20.085 19.7249 21.9989 19.7249 24.36C19.7249 26.721 21.6388 28.635 23.9999 28.635Z"/><path fill="#D1D5DB" d="M40.2374 17.31C39.4124 17.01 38.5499 16.71 37.6499 16.4475C37.8749 15.5475 38.0624 14.6475 38.2124 13.785C38.9999 8.83496 38.1374 5.34746 35.7374 3.99746C35.0249 3.58496 34.2374 3.39746 33.3374 3.39746C30.7124 3.39746 27.3749 5.34746 23.9999 8.60996C20.6249 5.34746 17.2874 3.39746 14.6624 3.39746C13.7624 3.39746 12.9749 3.58496 12.2624 3.99746C9.8624 5.38496 8.9999 8.87246 9.7874 13.785C9.9374 14.6475 10.1249 15.5475 10.3499 16.4475C9.4499 16.71 8.5874 16.9725 7.7624 17.31C3.0749 19.11 0.524902 21.585 0.524902 24.36C0.524902 27.135 3.1124 29.61 7.7624 31.41C8.5874 31.71 9.4499 32.01 10.3499 32.2725C10.1249 33.1725 9.9374 34.0725 9.7874 34.935C8.9999 39.885 9.8624 43.3725 12.2624 44.7225C12.9749 45.135 13.7624 45.3225 14.6624 45.3225C17.3249 45.3225 20.6624 43.3725 23.9999 40.11C27.3749 43.3725 30.7124 45.3225 33.3374 45.3225C34.2374 45.3225 35.0249 45.135 35.7374 44.7225C38.1374 43.335 38.9999 39.8475 38.2124 34.935C38.0624 34.0725 37.8749 33.1725 37.6499 32.2725C38.5499 32.01 39.4124 31.7475 40.2374 31.41C44.9249 29.61 47.4749 27.135 47.4749 24.36C47.4749 21.585 44.9249 19.11 40.2374 17.31ZM34.6874 5.87246C36.2249 6.77246 36.7499 9.54746 36.1124 13.485C35.9999 14.2725 35.8124 15.0975 35.5874 15.96C33.6374 15.51 31.5749 15.21 29.3999 15.0225C28.1249 13.2225 26.8124 11.61 25.4999 10.1475C28.2749 7.40996 31.0874 5.53496 33.3749 5.53496C33.8624 5.53496 34.3124 5.64746 34.6874 5.87246ZM30.4874 28.11C29.8124 29.31 29.0249 30.51 28.1999 31.71C26.8124 31.8225 25.4249 31.86 23.9999 31.86C22.5374 31.86 21.1499 31.8225 19.7999 31.71C18.9749 30.51 18.2249 29.31 17.5499 28.11C16.8374 26.8725 16.1624 25.5975 15.5624 24.36C16.1624 23.1225 16.8374 21.8475 17.5499 20.61C18.2249 19.41 19.0124 18.21 19.8374 17.01C21.2249 16.8975 22.6124 16.86 24.0374 16.86C25.4999 16.86 26.8874 16.8975 28.2374 17.01C29.0624 18.21 29.8124 19.41 30.4874 20.61C31.1999 21.8475 31.8749 23.1225 32.4749 24.36C31.8374 25.5975 31.1999 26.835 30.4874 28.11ZM33.5999 26.8725C34.1624 28.185 34.6124 29.46 35.0249 30.735C33.7499 31.035 32.3999 31.26 30.9749 31.4475C31.4249 30.735 31.9124 29.985 32.3249 29.1975C32.7749 28.41 33.1874 27.6225 33.5999 26.8725ZM23.9999 37.035C23.0999 36.06 22.2374 35.01 21.4124 33.9225C22.2749 33.96 23.1374 33.9975 23.9999 33.9975C24.8624 33.9975 25.7249 33.96 26.5874 33.9225C25.7624 35.01 24.8999 36.06 23.9999 37.035ZM17.0249 31.41C15.5999 31.2225 14.2499 30.9975 12.9749 30.6975C13.3874 29.46 13.8374 28.1475 14.3999 26.835C14.8124 27.585 15.2249 28.3725 15.6749 29.1225C16.1249 29.9475 16.5749 30.66 17.0249 31.41ZM14.3999 21.8475C13.8374 20.535 13.3874 19.26 12.9749 17.985C14.2499 17.685 15.5999 17.46 17.0249 17.2725C16.5749 17.985 16.0874 18.735 15.6749 19.5225C15.2249 20.31 14.8124 21.0975 14.3999 21.8475ZM23.9999 11.685C24.8999 12.66 25.7624 13.71 26.5874 14.7975C25.7249 14.76 24.8624 14.7225 23.9999 14.7225C23.1374 14.7225 22.2749 14.76 21.4124 14.7975C22.2374 13.71 23.0999 12.66 23.9999 11.685ZM32.3249 19.56L30.9749 17.31C32.3999 17.4975 33.7499 17.7225 35.0249 18.0225C34.6124 19.26 34.1624 20.5725 33.5999 21.885C33.1874 21.0975 32.7749 20.31 32.3249 19.56ZM11.8874 13.485C11.2499 9.54746 11.7749 6.77246 13.3124 5.87246C13.6874 5.64746 14.1374 5.53496 14.6249 5.53496C16.8749 5.53496 19.6874 7.37246 22.4999 10.1475C21.1874 11.5725 19.8749 13.2225 18.5999 15.0225C16.4249 15.21 14.3624 15.5475 12.4124 15.96C12.1874 15.0975 12.0374 14.2725 11.8874 13.485ZM2.6249 24.36C2.6249 22.5975 4.7624 20.7225 8.5124 19.335C9.2624 19.035 10.0874 18.7725 10.9124 18.5475C11.5124 20.4225 12.2624 22.41 13.1624 24.3975C12.2624 26.385 11.4749 28.335 10.9124 30.21C5.7374 28.71 2.6249 26.46 2.6249 24.36ZM13.3124 42.8475C11.7749 41.9475 11.2499 39.1725 11.8874 35.235C11.9999 34.4475 12.1874 33.6225 12.4124 32.76C14.3624 33.21 16.4249 33.51 18.5999 33.6975C19.8749 35.4975 21.1874 37.11 22.4999 38.5725C19.7249 41.31 16.9124 43.185 14.6249 43.185C14.1374 43.185 13.6874 43.0725 13.3124 42.8475ZM36.1124 35.235C36.7499 39.1725 36.2249 41.9475 34.6874 42.8475C34.3124 43.0725 33.8624 43.185 33.3749 43.185C31.1249 43.185 28.3124 41.3475 25.4999 38.5725C26.8124 37.1475 28.1249 35.4975 29.3999 33.6975C31.5749 33.51 33.6374 33.1725 35.5874 32.76C35.8124 33.6225 35.9624 34.4475 36.1124 35.235ZM39.4874 29.385C38.7374 29.685 37.9124 29.9475 37.0874 30.1725C36.4874 28.2975 35.7374 26.31 34.8374 24.3225C35.7374 22.335 36.5249 20.385 37.0874 18.51C42.2624 20.01 45.3749 22.26 45.3749 24.36C45.3749 26.1225 43.1999 27.9975 39.4874 29.385Z"/></svg>