<svg width="72" height="72" viewBox="0 0 72 72" fill="none" xmlns="http://www.w3.org/2000/svg">
<path d="M36 42.4129C39.5415 42.4129 42.4125 39.5419 42.4125 36.0004C42.4125 32.4589 39.5415 29.5879 36 29.5879C32.4585 29.5879 29.5875 32.4589 29.5875 36.0004C29.5875 39.5419 32.4585 42.4129 36 42.4129Z" fill="#61DAFB"/>
<path d="M60.3563 25.4254C59.1188 24.9754 57.825 24.5254 56.475 24.1316C56.8125 22.7816 57.0938 21.4316 57.3188 20.1379C58.5 12.7129 57.2063 7.48164 53.6063 5.45664C52.5375 4.83789 51.3563 4.55664 50.0063 4.55664C46.0688 4.55664 41.0625 7.48164 36 12.3754C30.9375 7.48164 25.9313 4.55664 21.9938 4.55664C20.6438 4.55664 19.4625 4.83789 18.3938 5.45664C14.7938 7.53789 13.5 12.7691 14.6813 20.1379C14.9063 21.4316 15.1875 22.7816 15.525 24.1316C14.175 24.5254 12.8813 24.9191 11.6438 25.4254C4.61251 28.1254 0.787506 31.8379 0.787506 36.0004C0.787506 40.1629 4.66876 43.8754 11.6438 46.5754C12.8813 47.0254 14.175 47.4754 15.525 47.8691C15.1875 49.2191 14.9063 50.5691 14.6813 51.8629C13.5 59.2879 14.7938 64.5191 18.3938 66.5441C19.4625 67.1629 20.6438 67.4441 21.9938 67.4441C25.9875 67.4441 30.9938 64.5191 36 59.6254C41.0625 64.5191 46.0688 67.4441 50.0063 67.4441C51.3563 67.4441 52.5375 67.1629 53.6063 66.5441C57.2063 64.4629 58.5 59.2316 57.3188 51.8629C57.0938 50.5691 56.8125 49.2191 56.475 47.8691C57.825 47.4754 59.1188 47.0816 60.3563 46.5754C67.3875 43.8754 71.2125 40.1629 71.2125 36.0004C71.2125 31.8379 67.3875 28.1254 60.3563 25.4254ZM52.0313 8.26914C54.3375 9.61914 55.125 13.7816 54.1688 19.6879C54 20.8691 53.7188 22.1066 53.3813 23.4004C50.4563 22.7254 47.3625 22.2754 44.1 21.9941C42.1875 19.2941 40.2188 16.8754 38.25 14.6816C42.4125 10.5754 46.6313 7.76289 50.0625 7.76289C50.7938 7.76289 51.4688 7.93164 52.0313 8.26914V8.26914ZM45.7313 41.6254C44.7188 43.4254 43.5375 45.2254 42.3 47.0254C40.2188 47.1941 38.1375 47.2504 36 47.2504C33.8063 47.2504 31.725 47.1941 29.7 47.0254C28.4625 45.2254 27.3375 43.4254 26.325 41.6254C25.2563 39.7691 24.2438 37.8566 23.3438 36.0004C24.2438 34.1441 25.2563 32.2316 26.325 30.3754C27.3375 28.5754 28.5188 26.7754 29.7563 24.9754C31.8375 24.8066 33.9188 24.7504 36.0563 24.7504C38.25 24.7504 40.3313 24.8066 42.3563 24.9754C43.5938 26.7754 44.7188 28.5754 45.7313 30.3754C46.8 32.2316 47.8125 34.1441 48.7125 36.0004C47.7563 37.8566 46.8 39.7129 45.7313 41.6254ZM50.4 39.7691C51.2438 41.7379 51.9188 43.6504 52.5375 45.5629C50.625 46.0129 48.6 46.3504 46.4625 46.6316C47.1375 45.5629 47.8688 44.4379 48.4875 43.2566C49.1625 42.0754 49.7813 40.8941 50.4 39.7691ZM36 55.0129C34.65 53.5504 33.3563 51.9754 32.1188 50.3441C33.4125 50.4004 34.7063 50.4566 36 50.4566C37.2938 50.4566 38.5875 50.4004 39.8813 50.3441C38.6438 51.9754 37.35 53.5504 36 55.0129ZM25.5375 46.5754C23.4 46.2941 21.375 45.9566 19.4625 45.5066C20.0813 43.6504 20.7563 41.6816 21.6 39.7129C22.2188 40.8379 22.8375 42.0191 23.5125 43.1441C24.1875 44.3816 24.8625 45.4504 25.5375 46.5754V46.5754ZM21.6 32.2316C20.7563 30.2629 20.0813 28.3504 19.4625 26.4379C21.375 25.9879 23.4 25.6504 25.5375 25.3691C24.8625 26.4379 24.1313 27.5629 23.5125 28.7441C22.8375 29.9254 22.2188 31.1066 21.6 32.2316V32.2316ZM36 16.9879C37.35 18.4504 38.6438 20.0254 39.8813 21.6566C38.5875 21.6004 37.2938 21.5441 36 21.5441C34.7063 21.5441 33.4125 21.6004 32.1188 21.6566C33.3563 20.0254 34.65 18.4504 36 16.9879V16.9879ZM48.4875 28.8004L46.4625 25.4254C48.6 25.7066 50.625 26.0441 52.5375 26.4941C51.9188 28.3504 51.2438 30.3191 50.4 32.2879C49.7813 31.1066 49.1625 29.9254 48.4875 28.8004V28.8004ZM17.8313 19.6879C16.875 13.7816 17.6625 9.61914 19.9688 8.26914C20.5313 7.93164 21.2063 7.76289 21.9375 7.76289C25.3125 7.76289 29.5313 10.5191 33.75 14.6816C31.7813 16.8191 29.8125 19.2941 27.9 21.9941C24.6375 22.2754 21.5438 22.7816 18.6188 23.4004C18.2813 22.1066 18.0563 20.8691 17.8313 19.6879ZM3.93751 36.0004C3.93751 33.3566 7.14376 30.5441 12.7688 28.4629C13.8938 28.0129 15.1313 27.6191 16.3688 27.2816C17.2688 30.0941 18.3938 33.0754 19.7438 36.0566C18.3938 39.0379 17.2125 41.9629 16.3688 44.7754C8.60626 42.5254 3.93751 39.1504 3.93751 36.0004V36.0004ZM19.9688 63.7316C17.6625 62.3816 16.875 58.2191 17.8313 52.3129C18 51.1316 18.2813 49.8941 18.6188 48.6004C21.5438 49.2754 24.6375 49.7254 27.9 50.0066C29.8125 52.7066 31.7813 55.1254 33.75 57.3191C29.5875 61.4254 25.3688 64.2379 21.9375 64.2379C21.2063 64.2379 20.5313 64.0691 19.9688 63.7316ZM54.1688 52.3129C55.125 58.2191 54.3375 62.3816 52.0313 63.7316C51.4688 64.0691 50.7938 64.2379 50.0625 64.2379C46.6875 64.2379 42.4688 61.4816 38.25 57.3191C40.2188 55.1816 42.1875 52.7066 44.1 50.0066C47.3625 49.7254 50.4563 49.2191 53.3813 48.6004C53.7188 49.8941 53.9438 51.1316 54.1688 52.3129V52.3129ZM59.2313 43.5379C58.1063 43.9879 56.8688 44.3816 55.6313 44.7191C54.7313 41.9066 53.6063 38.9254 52.2563 35.9441C53.6063 32.9629 54.7875 30.0379 55.6313 27.2254C63.3938 29.4754 68.0625 32.8504 68.0625 36.0004C68.0625 38.6441 64.8 41.4566 59.2313 43.5379V43.5379Z" fill="#61DAFB"/>
</svg>