<?xml version="1.0" encoding="UTF-8"?>
<svg xmlns="http://www.w3.org/2000/svg" xmlns:xlink="http://www.w3.org/1999/xlink" width="90" height="72" viewBox="0 0 90 72" version="1.1">
<g id="surface1">
<path style=" stroke:none;fill-rule:evenodd;fill:rgb(80%,0%,0%);fill-opacity:1;" d="M 3.050781 72 L 34.195312 72 C 34.195312 72 28.242188 36.363281 47.953125 21.929688 C 52.253906 19.1875 65.933594 8.945312 88.324219 30.671875 C 89.035156 29.898438 89.707031 29.277344 89.707031 29.277344 C 89.707031 29.277344 69.207031 2.433594 46.382812 5.433594 C 34.871094 6.777344 20.753906 20.488281 12.476562 38.585938 C 4.324219 56.402344 3.089844 71.523438 3.050781 71.992188 Z M 35.378906 61.652344 C 35.460938 64.390625 35.65625 66.617188 35.855469 68.171875 L 40.582031 70.394531 C 40.226562 68.382812 39.871094 66.101562 39.636719 63.675781 Z M 6.800781 47.0625 L 2.265625 44.886719 C 1.515625 47.113281 0.6875 49.699219 0.292969 51.09375 L 4.828125 53.269531 C 5.335938 51.511719 6.167969 48.984375 6.800781 47.0625 Z M 18.703125 23.953125 L 15.902344 20.746094 C 14.875 22.035156 13.894531 23.332031 12.984375 24.621094 L 16.019531 28.039062 C 16.855469 26.636719 17.757812 25.242188 18.703125 23.953125 Z M 35.96875 48.515625 L 39.164062 51.828125 C 39.324219 49.8125 39.601562 47.789062 39.992188 45.777344 L 37.15625 42.824219 C 36.640625 44.746094 36.289062 46.652344 35.96875 48.515625 Z M 41.6875 31.855469 L 43.582031 35.578125 C 44.25 34.292969 45.035156 33.097656 45.910156 31.90625 L 44.132812 28.390625 C 43.222656 29.480469 42.394531 30.671875 41.6875 31.855469 Z M 33.605469 8.582031 L 31.828125 5.011719 C 30.847656 5.679688 29.820312 6.40625 28.753906 7.234375 L 30.5625 10.855469 C 31.597656 10.035156 32.578125 9.261719 33.605469 8.582031 Z M 51.503906 22.1875 L 52.414062 25.757812 C 53.558594 25.03125 54.699219 24.410156 55.839844 23.941406 L 54.976562 20.523438 C 53.636719 21.050781 52.488281 21.621094 51.503906 22.1875 Z M 49.613281 3.148438 C 49.730469 3.148438 49.890625 3.148438 50.007812 3.148438 L 49.21875 0 C 47.996094 0 46.738281 0.105469 45.4375 0.316406 L 46.1875 3.371094 C 47.328125 3.207031 48.472656 3.148438 49.613281 3.148438 Z M 64.203125 19.292969 L 64.042969 22.550781 C 65.34375 22.597656 66.648438 22.808594 67.941406 23.167969 L 68.101562 19.960938 C 66.761719 19.597656 65.460938 19.398438 64.203125 19.292969 Z M 67.941406 8.324219 L 68.101562 4.859375 C 67.746094 4.601562 66.761719 3.980469 64.273438 3.046875 L 64.113281 6.464844 C 65.417969 7.035156 66.683594 7.65625 67.941406 8.324219 Z M 67.941406 8.324219 "/>
</g>
</svg>
