<svg xmlns="http://www.w3.org/2000/svg" width="48" height="49" fill="none" viewBox="0 0 48 49"><g clip-path="url(#clip0)"><path fill="#D1D5DB" fill-rule="evenodd" d="M12 20.06C13.5998 13.6602 17.6003 10.46 24 10.46C33.6 10.46 34.8 17.66 39.6 18.86C42.8003 19.6602 45.6 18.4602 48 15.26C46.4003 21.6597 42.3998 24.86 36 24.86C26.4 24.86 25.2 17.66 20.4 16.46C17.1998 15.6597 14.4 16.8597 12 20.06ZM2.76354e-06 34.46C1.59975 28.0602 5.60025 24.86 12 24.86C21.6 24.86 22.8 32.06 27.6 33.26C30.8003 34.0602 33.6 32.8602 36 29.66C34.4003 36.0597 30.3998 39.26 24 39.26C14.4 39.26 13.2 32.06 8.4 30.86C5.19975 30.0597 2.4 31.2597 2.76354e-06 34.46Z" clip-rule="evenodd"/></g><defs><clipPath id="clip0"><rect width="48" height="48" fill="#fff" transform="translate(0 0.859985)"/></clipPath></defs></svg>